<svg
   xmlns="http://www.w3.org/2000/svg"
   viewBox="0 0 47.98774 51.909496"
   id="svg10"
   version="1.1">
  <path
     id="path100"
     d="m 4.2384303,51.330708 c -4.4635006,-1.795877 -5.756543,-16.366257 -2.156695,-24.302267 1.115588,-2.459358 3.153606,-5.946858 4.5289294,-7.75 l 2.500588,-3.278439 H 24.009469 38.907686 l 2.500588,3.278439 c 4.570627,5.992401 6.555688,11.731411 6.579233,19.021221 0.023,7.122324 -1.656549,11.97926 -4.52284,13.079159 -1.919614,0.736625 -37.3839493,0.693126 -39.2262367,-0.04811 z M 25.371095,44.500002 c 0.316583,-0.825 1.248895,-1.5 2.071805,-1.5 2.085453,0 3.855558,-3.712442 3.136371,-6.577911 -0.361942,-1.44209 -1.586781,-2.63923 -3.085032,-3.015267 -1.846747,-0.463504 -2.48477,-1.28909 -2.48477,-3.21523 0,-2.015683 0.266667,-2.324925 1.2,-1.391592 1.658738,1.658738 3.8,1.504161 3.8,-0.27432 0,-1.963071 -5.40051,-4.679679 -7.686655,-3.866603 -2.911054,1.035326 -5.313345,3.506624 -5.313345,5.465973 0,0.998291 1.35,2.813173 3,4.033071 2.853477,2.109667 4.131221,5.841879 2,5.841879 -0.55,0 -1,-0.45 -1,-1 0,-0.55 -0.9,-1 -2,-1 -3.011059,0 -2.419772,2.854158 0.993677,4.79651 1.646523,0.93692 2.996523,2.04099 3,2.45349 0.01136,1.347047 1.77795,0.787514 2.367949,-0.75 z m -0.361626,-6 c 0,-1.490712 0.430599,-2.351909 1,-2 0.55,0.339919 1,1.239919 1,2 0,0.760081 -0.45,1.660081 -1,2 -0.569401,0.351909 -1,-0.509288 -1,-2 z M 21.455618,30.91287 c -0.369536,-0.597923 -0.171094,-1.587923 0.440983,-2.2 0.817157,-0.817157 1.112868,-0.528285 1.112868,1.087132 0,2.414511 -0.519459,2.786548 -1.553851,1.112868 z M 8.5442667,8.8964083 C 6.6001287,7.189432 5.0094693,5.426134 5.0094693,4.977968 5.0094693,3.399952 11.783254,0 14.927163,0 c 1.749894,0 4.509279,0.686556 6.131966,1.52568 2.644596,1.367574 3.256084,1.367574 5.90068,0 C 28.582496,0.686556 31.341881,0 33.091775,0 c 3.143909,0 9.917694,3.399952 9.917694,4.977968 0,0.448166 -1.590658,2.211464 -3.534796,3.9184403 -3.531281,3.1005067 -3.546661,3.1035937 -15.465204,3.1035937 -11.918543,0 -11.933923,-0.0031 -15.4652023,-3.1035937 z"
     style="fill:#404040" />
</svg>