<svg
   xmlns="http://www.w3.org/2000/svg"
   viewBox="0 0 42.000004 51.744888"
   id="svg121"
   version="1.1">
  <path
     id="path131"
     d="m 13.638374,50.244889 c -0.479985,-1.25082 0.665084,-1.5 6.89301,-1.5 5.9721,0 7.46862,0.30056 7.46862,1.5 0,1.188259 -1.43256,1.5 -6.89302,1.5 -5.204626,0 -7.033995,-0.367411 -7.46861,-1.5 z M 0,45.343665 c 0,-5.156508 0.165609,-5.498936 3.655224,-7.557859 3.658969,-2.158845 5.2850964,-1.67551 5.3294634,1.584083 0.0084,0.61875 0.289695,2.496911 0.625051,4.173692 0.5577676,2.788839 0.262844,3.225664 -3.4601624,5.125 C 3.911131,49.81055 1.611749,50.744889 1.039838,50.744889 0.4484,50.744889 0,48.415768 0,45.343665 Z m 35.750004,3.333138 c -2.12744,-1.123113 -3.74759,-2.726553 -3.74443,-3.705804 0.007,-2.087533 1.92891,-9.22611 2.48427,-9.22611 0.21771,0 1.99656,0.944449 3.953,2.098776 3.3781,1.993132 3.55716,2.37065 3.55716,7.5 0,6.094085 -0.50748,6.364723 -6.25,3.333138 z M 11.96455,44.151649 C 9.6928134,38.176527 8.6426114,28.075922 9.5728554,21.148867 L 10.5,14.244889 20.411834,13.956725 c 5.78547,-0.168199 10.33492,0.134921 10.92812,0.728117 1.92389,1.923896 1.90331,17.055628 -0.0334,24.560047 l -1.80654,7 -8.25932,0.290593 C 13.096437,46.822026 12.96721,46.788817 11.96456,44.151649 Z M 25.329514,31.500838 c 1.54156,-3.154757 1.647,-4.297076 0.66992,-7.257676 -2.15929,-6.542695 -7.664656,-6.765976 -9.883552,-0.400847 -1.244947,3.571257 -0.573453,7.567724 1.713252,10.196594 2.37953,2.735585 5.42741,1.704206 7.50038,-2.538071 z M 12,10.894927 c 0,-1.137339 5.239786,-8.2986225 7.333274,-10.0224823 1.41269,-1.1632596 1.92076,-1.1632596 3.33345,0 2.09349,1.7238598 7.33328,8.8851433 7.33328,10.0224823 0,0.467479 -4.05,0.849962 -9,0.849962 C 16.05,11.744889 12,11.362406 12,10.894927 Z"
     style="fill:#414141" />
</svg>