<svg
   xmlns="http://www.w3.org/2000/svg"
   viewBox="0 0 60 36.040405"
   id="svg141"
   version="1.1">
  <path
     id="path151"
     d="m 0,35.698341 c 0,-0.177024 0.717301,-2.427024 1.594002,-5 1.407899,-4.131956 1.933283,-4.678139 4.5,-4.678139 1.6851244,0 2.9059988,0.534461 2.9059988,1.272156 0,0.699686 1.3827622,2.949686 3.0728042,5 l 3.072804,3.727844 H 7.5728044 C 3.407762,36.020202 0,35.875364 0,35.698341 Z m 20.520383,-1.964972 c -11.4246302,-6.470554 -11.4246302,-24.9557787 0,-31.4263335 5.431173,-3.07604733 13.528063,-3.07604733 18.959236,0 11.424629,6.4705548 11.424629,24.9557795 0,31.4263335 -5.431173,3.076048 -13.528063,3.076048 -18.959236,0 z m 15.512351,-5.230094 c 7.823025,-4.045443 7.823025,-16.920703 0,-20.9661453 C 30.453628,4.6520619 23.00038,6.3261749 19.560705,11.236997 c -1.786791,2.551002 -2.072085,9.959165 -0.496882,12.902457 2.752281,5.142685 11.24119,7.325741 16.968911,4.363821 z m -5.429498,-6.500484 c -3.325,-3.680378 -3.676638,-4.588333 -3.405544,-8.793369 0.274286,-4.2545515 0.534047,-4.6892192 2.802309,-4.6892192 2.197096,0 2.538459,0.4846458 2.817422,3.9999992 0.206237,2.598909 1.20184,4.928618 2.842365,6.651127 2.70453,2.839689 2.820874,6.132625 0.234273,6.630759 -0.870635,0.167669 -3.251506,-1.542015 -5.290825,-3.799297 z m 17.323961,10.289567 c 1.690042,-2.050314 3.072804,-4.300314 3.072804,-5 0,-0.737695 1.220873,-1.272156 2.905998,-1.272156 2.566716,0 3.092101,0.546183 4.5,4.678139 0.876701,2.572976 1.594002,4.822976 1.594002,5 0,0.177023 -3.407762,0.321861 -7.572804,0.321861 h -7.572804 z"
     style="fill:#424242" />
</svg>